<?xml version="1.0" encoding="utf-8"?>
<!-- Generator: Adobe Illustrator 19.2.1, SVG Export Plug-In . SVG Version: 6.00 Build 0)  -->
<svg version="1.1" id="Layer_1" xmlns="http://www.w3.org/2000/svg" xmlns:xlink="http://www.w3.org/1999/xlink" x="0px" y="0px"
	 viewBox="0 0 856 708" style="enable-background:new 0 0 856 708;" xml:space="preserve">
<style type="text/css">
	.st0{fill:#0B1A30;}
	.st1{fill:none;}
	.st2{fill:#F4F4F4;}
	.st3{font-family:'Bitter-Regular';}
	.st4{font-size:14px;}
</style>
<rect x="-3" class="st0" width="859" height="708"/>
<rect x="28.6" y="29.7" class="st1" width="265.7" height="655.3"/>
<text transform="matrix(1 0 0 1 28.5557 40.4658)"><tspan x="0" y="0" class="st2 st3 st4">Survivorship Bias</tspan><tspan x="0" y="20" class="st2 st3 st4">Swimmer’s Body Illusion</tspan><tspan x="0" y="40" class="st2 st3 st4">Clustering Illusion</tspan><tspan x="0" y="60" class="st2 st3 st4">Social Proof</tspan><tspan x="0" y="80" class="st2 st3 st4">Sunk Cost Fallacy</tspan><tspan x="0" y="100" class="st2 st3 st4">Reciprocity</tspan><tspan x="0" y="120" class="st2 st3 st4">Confirmation Bias</tspan><tspan x="0" y="140" class="st2 st3 st4">Authority Bias</tspan><tspan x="0" y="160" class="st2 st3 st4">Contrast Effect</tspan><tspan x="0" y="180" class="st2 st3 st4">Availability Bias</tspan><tspan x="0" y="200" class="st2 st3 st4">The It’ll-Get-Worse-Before-It</tspan><tspan x="0" y="220" class="st2 st3 st4">Story Bias</tspan><tspan x="0" y="240" class="st2 st3 st4">Hindsight Bias</tspan><tspan x="0" y="260" class="st2 st3 st4">Overconfidence Eff</tspan><tspan x="0" y="280" class="st2 st3 st4">Chauffeur Knowledge</tspan><tspan x="0" y="300" class="st2 st3 st4">Illusion of Control</tspan><tspan x="0" y="320" class="st2 st3 st4">Incentive Super-Response Tendency</tspan><tspan x="0" y="340" class="st2 st3 st4">Regression to the Mean</tspan><tspan x="0" y="360" class="st2 st3 st4">Outcome Bias</tspan><tspan x="0" y="380" class="st2 st3 st4">Paradox of Choice</tspan><tspan x="0" y="400" class="st2 st3 st4">Liking Bias</tspan><tspan x="0" y="420" class="st2 st3 st4">Endowment Effect</tspan><tspan x="0" y="440" class="st2 st3 st4">Coincidence</tspan><tspan x="0" y="460" class="st2 st3 st4">Groupthink</tspan><tspan x="0" y="480" class="st2 st3 st4">Neglect of Probability</tspan><tspan x="0" y="500" class="st2 st3 st4">Scarcity Error</tspan><tspan x="0" y="520" class="st2 st3 st4">Base-Rate Neglect</tspan><tspan x="0" y="540" class="st2 st3 st4">Gambler’s Fallacy</tspan><tspan x="0" y="560" class="st2 st3 st4">The Anchor</tspan><tspan x="0" y="580" class="st2 st3 st4">Induction</tspan><tspan x="0" y="600" class="st2 st3 st4">Loss Aversion</tspan><tspan x="0" y="620" class="st2 st3 st4">Social Loafing</tspan><tspan x="0" y="640" class="st2 st3 st4">Exponential Growth</tspan></text>
<rect x="336" y="29.7" class="st1" width="236.5" height="655.3"/>
<text transform="matrix(1 0 0 1 335.9999 40.4658)"><tspan x="0" y="0" class="st2 st3 st4">Winner’s Curse</tspan><tspan x="0" y="20" class="st2 st3 st4">Fundamental Attribution Error</tspan><tspan x="0" y="40" class="st2 st3 st4">False Causality</tspan><tspan x="0" y="60" class="st2 st3 st4">Halo Effect</tspan><tspan x="0" y="80" class="st2 st3 st4">Alternative Paths</tspan><tspan x="0" y="100" class="st2 st3 st4">Forecast Illusion</tspan><tspan x="0" y="120" class="st2 st3 st4">Conjunction Fallacy</tspan><tspan x="0" y="140" class="st2 st3 st4">Framing</tspan><tspan x="0" y="160" class="st2 st3 st4">Action Bias</tspan><tspan x="0" y="180" class="st2 st3 st4">Omission Bias</tspan><tspan x="0" y="200" class="st2 st3 st4">Self-Serving Bias</tspan><tspan x="0" y="220" class="st2 st3 st4">Hedonic Treadmill</tspan><tspan x="0" y="240" class="st2 st3 st4">Self-Selection Bias</tspan><tspan x="0" y="260" class="st2 st3 st4">Association Bias</tspan><tspan x="0" y="280" class="st2 st3 st4">Beginner’s Luck</tspan><tspan x="0" y="300" class="st2 st3 st4">Cognitive Dissonance</tspan><tspan x="0" y="320" class="st2 st3 st4">Hyperbolic Discounting</tspan><tspan x="0" y="340" class="st2 st3 st4">“Because” Justification</tspan><tspan x="0" y="360" class="st2 st3 st4">Decision Fatigue</tspan><tspan x="0" y="380" class="st2 st3 st4">Contagion Bias</tspan><tspan x="0" y="400" class="st2 st3 st4">The Problem with Averages</tspan><tspan x="0" y="420" class="st2 st3 st4">Motivation Crowding</tspan><tspan x="0" y="440" class="st2 st3 st4">Twaddle Tendency</tspan><tspan x="0" y="460" class="st2 st3 st4">Will Rogers Phenomenon</tspan><tspan x="0" y="480" class="st2 st3 st4">Information Bias</tspan><tspan x="0" y="500" class="st2 st3 st4">Effort Justification</tspan><tspan x="0" y="520" class="st2 st3 st4">The Law of Small Numbers</tspan><tspan x="0" y="540" class="st2 st3 st4">Expectations</tspan><tspan x="0" y="560" class="st2 st3 st4">Simple Logic</tspan><tspan x="0" y="580" class="st2 st3 st4">Forer Effect</tspan><tspan x="0" y="600" class="st2 st3 st4">Volunteer’s Folly</tspan><tspan x="0" y="620" class="st2 st3 st4">Affect Heuristic</tspan><tspan x="0" y="640" class="st2 st3 st4">Introspection Illusion</tspan></text>
<rect x="628.4" y="29.7" class="st1" width="434.6" height="744.3"/>
<text transform="matrix(1 0 0 1 628.4053 40.4658)"><tspan x="0" y="0" class="st2 st3 st4">Inability to Close Doors</tspan><tspan x="0" y="20" class="st2 st3 st4">Neomania</tspan><tspan x="0" y="40" class="st2 st3 st4">Sleeper Effect</tspan><tspan x="0" y="60" class="st2 st3 st4">Alternative Blindness</tspan><tspan x="0" y="80" class="st2 st3 st4">Social Comparison Bias</tspan><tspan x="0" y="100" class="st2 st3 st4">Primacy and Recency Effects</tspan><tspan x="0" y="120" class="st2 st3 st4">Not-Invented-Here Syndrome</tspan><tspan x="0" y="140" class="st2 st3 st4">The Black Swan</tspan><tspan x="0" y="160" class="st2 st3 st4">Domain Dependence</tspan><tspan x="0" y="180" class="st2 st3 st4">False-Consensus Effect</tspan><tspan x="0" y="200" class="st2 st3 st4">Falsification of History</tspan><tspan x="0" y="220" class="st2 st3 st4">In-Group Out-Group Bias</tspan><tspan x="0" y="240" class="st2 st3 st4">Ambiguity Aversion</tspan><tspan x="0" y="260" class="st2 st3 st4">Default Effect</tspan><tspan x="0" y="280" class="st2 st3 st4">Fear of Regret</tspan><tspan x="0" y="300" class="st2 st3 st4">Salience Effect</tspan><tspan x="0" y="320" class="st2 st3 st4">House-Money Effect</tspan><tspan x="0" y="340" class="st2 st3 st4">Procrastination</tspan><tspan x="0" y="360" class="st2 st3 st4">Envy</tspan><tspan x="0" y="380" class="st2 st3 st4">Personification</tspan><tspan x="0" y="400" class="st2 st3 st4">Illusion of Attention</tspan><tspan x="0" y="420" class="st2 st3 st4">Strategic Misrepresentation</tspan><tspan x="0" y="440" class="st2 st3 st4">Overthinking</tspan><tspan x="0" y="460" class="st2 st3 st4">Planning Fallacy</tspan><tspan x="0" y="480" class="st2 st3 st4">Deformation Professionnelle</tspan><tspan x="0" y="500" class="st2 st3 st4">Zeigarnik Effect</tspan><tspan x="0" y="520" class="st2 st3 st4">Illusion of Skill</tspan><tspan x="0" y="540" class="st2 st3 st4">Feature-Positive Effect</tspan><tspan x="0" y="560" class="st2 st3 st4">Cherry Picking</tspan><tspan x="0" y="580" class="st2 st3 st4">Fallacy of the Single Cause</tspan><tspan x="0" y="600" class="st2 st3 st4">Intention-to-Treat Error</tspan><tspan x="0" y="620" class="st2 st3 st4">News Illusion</tspan></text>
</svg>
