<?xml version="1.0" encoding="utf-8"?>
<!-- Generator: Adobe Illustrator 19.2.1, SVG Export Plug-In . SVG Version: 6.00 Build 0)  -->
<svg version="1.1" id="Layer_1" xmlns="http://www.w3.org/2000/svg" xmlns:xlink="http://www.w3.org/1999/xlink" x="0px" y="0px"
	 viewBox="0 0 520.7 269.3" style="enable-background:new 0 0 520.7 269.3;" xml:space="preserve">
<style type="text/css">
	.st0{fill:none;stroke:#919191;stroke-miterlimit:10;}
	.st1{opacity:0.5;fill:#FF0000;}
</style>
<g>
	<path class="st0" d="M86.9,22.3c2.8,3.2,5.8,7.3,9.2,12.4h-9.2V22.3z"/>
	<path class="st0" d="M69.8,34.7V12.1c4.7,0.6,8.7,2.3,12.7,5.9v16.8H69.8z"/>
	<path class="st0" d="M52.8,34.7V13.2c1.5-0.2,3.1-0.4,4.8-0.7c2.9-0.4,5.6-0.6,8-0.7v22.8H52.8z"/>
	<path class="st0" d="M35.8,34.7V19c3.4-2.8,7.5-4.2,12.7-5.1v20.8H35.8z"/>
	<path class="st0" d="M26.1,34.7c1.8-4.6,3.5-8.2,5.4-10.9v10.9H26.1z"/>
	<path class="st0" d="M103.9,46.9c0.7,1.1,1.5,2.3,2.2,3.5c2.4,3.9,4.3,8,5.8,12.2h-8V46.9z"/>
	<path class="st0" d="M99.6,39.7v0.4c-0.1-0.1-0.2-0.3-0.3-0.4H99.6z"/>
	<path class="st0" d="M86.9,62.6V39.7h12.5c0.1,0.1,0.2,0.3,0.3,0.4v22.4H86.9z"/>
	<rect x="69.8" y="39.7" class="st0" width="12.7" height="22.9"/>
	<rect x="52.8" y="39.7" class="st0" width="12.7" height="22.9"/>
	<rect x="35.8" y="39.7" class="st0" width="12.7" height="22.9"/>
	<path class="st0" d="M31.5,62.6H19c0.3-3.7,0.8-7.4,1.8-10.9c1.2-4.5,2.4-8.5,3.6-11.9h7.2L31.5,62.6L31.5,62.6z"/>
	<path class="st0" d="M103.9,67.6h9.6c2.1,7.5,3,15.2,3.1,22.9h-12.7V67.6z"/>
	<rect x="86.9" y="67.6" class="st0" width="12.7" height="22.9"/>
	<rect x="69.8" y="67.6" class="st0" width="12.7" height="22.9"/>
	<rect x="52.8" y="67.6" class="st0" width="12.7" height="22.9"/>
	<rect x="35.8" y="67.6" class="st0" width="12.7" height="22.9"/>
	<path class="st0" d="M31.5,90.4h-9.6c-1.9-7.4-3.1-15.2-3.1-22.9h12.7L31.5,90.4L31.5,90.4z"/>
	<path class="st0" d="M103.9,95.4h12.7c-0.2,8.1-1.2,15.9-2.5,22.9h-10.1V95.4z"/>
	<rect x="86.9" y="95.4" class="st0" width="12.7" height="22.9"/>
	<rect x="69.8" y="95.4" class="st0" width="12.7" height="22.9"/>
	<rect x="52.8" y="95.4" class="st0" width="12.7" height="22.9"/>
	<rect x="35.8" y="95.4" class="st0" width="12.7" height="22.9"/>
	<path class="st0" d="M31.5,117.6c-2.8-6.4-5.8-14.1-8.2-22.2h8.2V117.6z"/>
	<path class="st0" d="M103.9,123.2h9.2c-2.3,11.1-5.1,19.5-5.8,22.9h-3.3V123.2z"/>
	<rect x="86.9" y="123.2" class="st0" width="12.7" height="22.9"/>
	<rect x="69.8" y="123.2" class="st0" width="12.7" height="22.9"/>
	<rect x="52.8" y="123.2" class="st0" width="12.7" height="22.9"/>
	<path class="st0" d="M48.5,123.2v22.9h-6.2c-0.9-4.6-1.8-7.6-2-9.2c-0.1-1-2-4.6-4.6-10v-3.7L48.5,123.2L48.5,123.2z"/>
	<path class="st0" d="M103.9,151.1h2.6c-1.1,9-1,16.3-0.4,22.9h-2.1V151.1z"/>
	<rect x="86.9" y="151.1" class="st0" width="12.7" height="22.9"/>
	<rect x="69.8" y="151.1" class="st0" width="12.7" height="22.9"/>
	<rect x="52.8" y="151.1" class="st0" width="12.7" height="22.9"/>
	<path class="st0" d="M48.5,173.9h-5.7c1.2-9.4,1-17,0.3-22.9h5.4V173.9z"/>
	<path class="st0" d="M103.9,178.9h2.7c1,7.7,2.4,14.7,2.8,22.9h-5.5V178.9z"/>
	<rect x="86.9" y="178.9" class="st0" width="12.7" height="22.9"/>
	<rect x="69.8" y="178.9" class="st0" width="12.7" height="22.9"/>
	<rect x="52.8" y="178.9" class="st0" width="12.7" height="22.9"/>
	<path class="st0" d="M48.5,201.8H37.8c0.8-5,2-11.3,3.8-20.5c0.2-0.8,0.3-1.6,0.4-2.3h6.5L48.5,201.8L48.5,201.8z"/>
	<path class="st0" d="M103.9,206.8h5.7c0,4.4-0.3,9.3-1,14.7c-0.4,3-0.9,5.6-1.5,8.1h-3.1V206.8z"/>
	<rect x="86.9" y="206.8" class="st0" width="12.7" height="22.9"/>
	<rect x="69.8" y="206.8" class="st0" width="12.7" height="22.9"/>
	<rect x="52.8" y="206.8" class="st0" width="12.7" height="22.9"/>
	<path class="st0" d="M48.5,229.6h-11c-0.1-0.5-0.1-1-0.2-1.5c-0.7-9.7-0.9-14.9-0.2-21.3h11.4L48.5,229.6L48.5,229.6z"/>
	<path class="st0" d="M105.5,234.6c-0.5,1.5-1.1,2.9-1.7,4.2v-4.2H105.5z"/>
	<path class="st0" d="M99.6,234.6v11.4c-3.6,4.5-8,7.1-12.7,8.6v-20.1H99.6z"/>
	<path class="st0" d="M82.6,234.6v21.2c-2.6,0.6-5.3,1-8.1,1.4c-1.5,0.2-3.1,0.3-4.7,0.2v-22.8L82.6,234.6L82.6,234.6z"/>
	<path class="st0" d="M65.5,234.6v22.3c-4.3-0.8-8.7-2.6-12.7-5.1v-17.1H65.5z"/>
	<path class="st0" d="M48.5,248.7c-4.5-3.7-8-8.5-9.9-14h9.9V248.7z"/>
</g>
<g>
	<path class="st0" d="M273,22.3c2.8,3.2,5.8,7.3,9.2,12.4H273V22.3z"/>
	<path class="st0" d="M255.9,34.7V12.1c4.7,0.6,8.7,2.3,12.7,5.9v16.8H255.9z"/>
	<path class="st0" d="M238.9,34.7V13.2c1.5-0.2,3.1-0.4,4.8-0.7c2.9-0.4,5.6-0.6,8-0.7v22.8H238.9z"/>
	<path class="st0" d="M221.9,34.7V19c3.4-2.8,7.5-4.2,12.7-5.1v20.8H221.9z"/>
	<path class="st0" d="M212.2,34.7c1.8-4.6,3.5-8.2,5.4-10.9v10.9H212.2z"/>
	<path class="st0" d="M290,46.9c0.7,1.1,1.5,2.3,2.2,3.5c2.4,3.9,4.3,8,5.8,12.2h-8V46.9z"/>
	<path class="st0" d="M285.7,39.7v0.4c-0.1-0.1-0.2-0.3-0.3-0.4H285.7z"/>
	<path class="st0" d="M273,62.6V39.7h12.5c0.1,0.1,0.2,0.3,0.3,0.4v22.4H273z"/>
	<rect x="255.9" y="39.7" class="st0" width="12.7" height="22.9"/>
	<rect x="238.9" y="39.7" class="st0" width="12.7" height="22.9"/>
	<rect x="221.9" y="39.7" class="st0" width="12.7" height="22.9"/>
	<path class="st0" d="M217.6,62.6h-12.6c0.3-3.7,0.8-7.4,1.8-10.9c1.2-4.5,2.4-8.5,3.6-11.9h7.2L217.6,62.6L217.6,62.6z"/>
	<path class="st0" d="M290,67.6h9.6c2.1,7.5,3,15.2,3.1,22.9H290V67.6z"/>
	<rect x="273" y="67.6" class="st0" width="12.7" height="22.9"/>
	<rect x="255.9" y="67.6" class="st0" width="12.7" height="22.9"/>
	<rect x="238.9" y="67.6" class="st0" width="12.7" height="22.9"/>
	<rect x="221.9" y="67.6" class="st0" width="12.7" height="22.9"/>
	<path class="st0" d="M217.6,90.4H208c-1.9-7.4-3.1-15.2-3.1-22.9h12.7L217.6,90.4L217.6,90.4z"/>
	<path class="st0" d="M290,95.4h12.7c-0.2,8.1-1.2,15.9-2.5,22.9H290V95.4z"/>
	<rect x="273" y="95.4" class="st0" width="12.7" height="22.9"/>
	<rect x="255.9" y="95.4" class="st0" width="12.7" height="22.9"/>
	<rect x="238.9" y="95.4" class="st0" width="12.7" height="22.9"/>
	<rect x="221.9" y="95.4" class="st0" width="12.7" height="22.9"/>
	<path class="st0" d="M217.6,117.6c-2.8-6.4-5.8-14.1-8.2-22.2h8.2V117.6z"/>
	<path class="st0" d="M290,123.2h9.2c-2.3,11.1-5.1,19.5-5.8,22.9H290V123.2z"/>
	<rect x="273" y="123.2" class="st0" width="12.7" height="22.9"/>
	<rect x="255.9" y="123.2" class="st0" width="12.7" height="22.9"/>
	<rect x="238.9" y="123.2" class="st0" width="12.7" height="22.9"/>
	<path class="st0" d="M234.6,123.2v22.9h-6.2c-0.9-4.6-1.8-7.6-2-9.2c-0.1-1-2-4.6-4.6-10v-3.7L234.6,123.2L234.6,123.2z"/>
	<path class="st0" d="M290,151.1h2.6c-1.1,9-1,16.3-0.4,22.9H290V151.1z"/>
	<rect x="273" y="151.1" class="st0" width="12.7" height="22.9"/>
	<rect x="255.9" y="151.1" class="st0" width="12.7" height="22.9"/>
	<rect x="238.9" y="151.1" class="st0" width="12.7" height="22.9"/>
	<path class="st0" d="M234.6,173.9h-5.7c1.2-9.4,1-17,0.3-22.9h5.4V173.9z"/>
	<path class="st0" d="M290,178.9h2.7c1,7.7,2.4,14.7,2.8,22.9H290V178.9z"/>
	<rect x="273" y="178.9" class="st0" width="12.7" height="22.9"/>
	<rect x="255.9" y="178.9" class="st0" width="12.7" height="22.9"/>
	<rect x="238.9" y="178.9" class="st0" width="12.7" height="22.9"/>
	<path class="st0" d="M234.6,201.8h-10.7c0.8-5,2-11.3,3.8-20.5c0.2-0.8,0.3-1.6,0.4-2.3h6.5L234.6,201.8L234.6,201.8z"/>
	<path class="st0" d="M290,206.8h5.7c0,4.4-0.3,9.3-1,14.7c-0.4,3-0.9,5.6-1.5,8.1H290V206.8z"/>
	<rect x="273" y="206.8" class="st0" width="12.7" height="22.9"/>
	<rect x="255.9" y="206.8" class="st0" width="12.7" height="22.9"/>
	<rect x="238.9" y="206.8" class="st0" width="12.7" height="22.9"/>
	<path class="st0" d="M234.6,229.6h-11c-0.1-0.5-0.1-1-0.2-1.5c-0.7-9.7-0.9-14.9-0.2-21.3h11.4L234.6,229.6L234.6,229.6z"/>
	<path class="st0" d="M291.6,234.6c-0.5,1.5-1.1,2.9-1.7,4.2v-4.2H291.6z"/>
	<path class="st0" d="M285.7,234.6v11.4c-3.6,4.5-8,7.1-12.7,8.6v-20.1H285.7z"/>
	<path class="st0" d="M268.7,234.6v21.2c-2.6,0.6-5.3,1-8.1,1.4c-1.5,0.2-3.1,0.3-4.7,0.2v-22.8L268.7,234.6L268.7,234.6z"/>
	<path class="st0" d="M251.7,234.6v22.3c-4.3-0.8-8.7-2.6-12.7-5.1v-17.1H251.7z"/>
	<path class="st0" d="M234.6,248.7c-4.5-3.7-8-8.5-9.9-14h9.9V248.7z"/>
</g>
<g>
	<path class="st0" d="M462.7,22.3c2.8,3.2,5.8,7.3,9.2,12.4h-9.2V22.3z"/>
	<path class="st0" d="M445.7,34.7V12.1c4.7,0.6,8.7,2.3,12.7,5.9v16.8H445.7z"/>
	<path class="st0" d="M428.6,34.7V13.2c1.5-0.2,3.1-0.4,4.8-0.7c2.9-0.4,5.6-0.6,8-0.7v22.8H428.6z"/>
	<path class="st0" d="M411.6,34.7V19c3.4-2.8,7.5-4.2,12.7-5.1v20.8H411.6z"/>
	<path class="st0" d="M401.9,34.7c1.8-4.6,3.5-8.2,5.4-10.9v10.9H401.9z"/>
	<path class="st0" d="M479.7,46.9c0.7,1.1,1.5,2.3,2.2,3.5c2.4,3.9,4.3,8,5.8,12.2h-8V46.9z"/>
	<path class="st0" d="M475.4,39.7v0.4c-0.1-0.1-0.2-0.3-0.3-0.4H475.4z"/>
	<path class="st0" d="M462.7,62.6V39.7h12.5c0.1,0.1,0.2,0.3,0.3,0.4v22.4H462.7z"/>
	<rect x="445.7" y="39.7" class="st0" width="12.7" height="22.9"/>
	<rect x="428.6" y="39.7" class="st0" width="12.7" height="22.9"/>
	<rect x="411.6" y="39.7" class="st0" width="12.7" height="22.9"/>
	<path class="st0" d="M407.3,62.6h-12.6c0.3-3.7,0.8-7.4,1.8-10.9c1.2-4.5,2.4-8.5,3.6-11.9h7.2L407.3,62.6L407.3,62.6z"/>
	<path class="st0" d="M479.7,67.6h9.6c2.1,7.5,3,15.2,3.1,22.9h-12.7V67.6z"/>
	<rect x="462.7" y="67.6" class="st0" width="12.7" height="22.9"/>
	<rect x="445.7" y="67.6" class="st0" width="12.7" height="22.9"/>
	<rect x="428.6" y="67.6" class="st0" width="12.7" height="22.9"/>
	<rect x="411.6" y="67.6" class="st0" width="12.7" height="22.9"/>
	<path class="st0" d="M407.3,90.4h-9.6c-1.9-7.4-3.1-15.2-3.1-22.9h12.7L407.3,90.4L407.3,90.4z"/>
	<path class="st0" d="M479.7,95.4h12.7c-0.2,8.1-1.2,15.9-2.5,22.9h-10.1V95.4z"/>
	<rect x="462.7" y="95.4" class="st0" width="12.7" height="22.9"/>
	<rect x="445.7" y="95.4" class="st0" width="12.7" height="22.9"/>
	<rect x="428.6" y="95.4" class="st0" width="12.7" height="22.9"/>
	<rect x="411.6" y="95.4" class="st0" width="12.7" height="22.9"/>
	<path class="st0" d="M407.3,117.6c-2.8-6.4-5.8-14.1-8.2-22.2h8.2V117.6z"/>
	<path class="st0" d="M479.7,123.2h9.2c-2.3,11.1-5.1,19.5-5.8,22.9h-3.3V123.2z"/>
	<rect x="462.7" y="123.2" class="st0" width="12.7" height="22.9"/>
	<rect x="445.7" y="123.2" class="st0" width="12.7" height="22.9"/>
	<rect x="428.6" y="123.2" class="st0" width="12.7" height="22.9"/>
	<path class="st0" d="M424.3,123.2v22.9h-6.2c-0.9-4.6-1.8-7.6-2-9.2c-0.1-1-2-4.6-4.6-10v-3.7L424.3,123.2L424.3,123.2z"/>
	<path class="st0" d="M479.7,151.1h2.6c-1.1,9-1,16.3-0.4,22.9h-2.1V151.1z"/>
	<rect x="462.7" y="151.1" class="st0" width="12.7" height="22.9"/>
	<rect x="445.7" y="151.1" class="st0" width="12.7" height="22.9"/>
	<rect x="428.6" y="151.1" class="st0" width="12.7" height="22.9"/>
	<path class="st0" d="M424.3,173.9h-5.7c1.2-9.4,1-17,0.3-22.9h5.4V173.9z"/>
	<path class="st0" d="M479.7,178.9h2.7c1,7.7,2.4,14.7,2.8,22.9h-5.5V178.9z"/>
	<rect x="462.7" y="178.9" class="st0" width="12.7" height="22.9"/>
	<rect x="445.7" y="178.9" class="st0" width="12.7" height="22.9"/>
	<rect x="428.6" y="178.9" class="st0" width="12.7" height="22.9"/>
	<path class="st0" d="M424.3,201.8h-10.7c0.8-5,2-11.3,3.8-20.5c0.2-0.8,0.3-1.6,0.4-2.3h6.5L424.3,201.8L424.3,201.8z"/>
	<path class="st0" d="M479.7,206.8h5.7c0,4.4-0.3,9.3-1,14.7c-0.4,3-0.9,5.6-1.5,8.1h-3.1V206.8z"/>
	<rect x="462.7" y="206.8" class="st0" width="12.7" height="22.9"/>
	<rect x="445.7" y="206.8" class="st0" width="12.7" height="22.9"/>
	<rect x="428.6" y="206.8" class="st0" width="12.7" height="22.9"/>
	<path class="st0" d="M424.3,229.6h-11c-0.1-0.5-0.1-1-0.2-1.5c-0.7-9.7-0.9-14.9-0.2-21.3h11.4L424.3,229.6L424.3,229.6z"/>
	<path class="st0" d="M481.4,234.6c-0.5,1.5-1.1,2.9-1.7,4.2v-4.2H481.4z"/>
	<path class="st0" d="M475.4,234.6v11.4c-3.6,4.5-8,7.1-12.7,8.6v-20.1H475.4z"/>
	<path class="st0" d="M458.4,234.6v21.2c-2.6,0.6-5.3,1-8.1,1.4c-1.5,0.2-3.1,0.3-4.7,0.2v-22.8L458.4,234.6L458.4,234.6z"/>
	<path class="st0" d="M441.4,234.6v22.3c-4.3-0.8-8.7-2.6-12.7-5.1v-17.1H441.4z"/>
	<path class="st0" d="M424.3,248.7c-4.5-3.7-8-8.5-9.9-14h9.9V248.7z"/>
</g>
<ellipse class="st1" cx="38.6" cy="69.5" rx="20.6" ry="43.9"/>
<ellipse class="st1" cx="467.3" cy="81" rx="20.6" ry="43.9"/>
<ellipse class="st1" cx="465.7" cy="224.4" rx="15.6" ry="30"/>
<ellipse class="st1" cx="56" cy="212.5" rx="18.8" ry="38.6"/>
<ellipse class="st1" cx="251" cy="67.3" rx="46.2" ry="13.7"/>
<ellipse class="st1" cx="264.9" cy="232.1" rx="25.9" ry="19.6"/>
</svg>
