<?xml version="1.0" encoding="utf-8"?>
<!-- Generator: Adobe Illustrator 19.2.1, SVG Export Plug-In . SVG Version: 6.00 Build 0)  -->
<svg version="1.1" id="Layer_1" xmlns="http://www.w3.org/2000/svg" xmlns:xlink="http://www.w3.org/1999/xlink" x="0px" y="0px"
	 viewBox="0 0 507 164" style="enable-background:new 0 0 507 164;" xml:space="preserve">
<style type="text/css">
	.st0{opacity:0.5;fill:#FF0000;}
</style>
<path d="M56.6,45.7c3.3,1.1,6.4,3.1,9.2,5.7V51v-3.4v-2.7c-2.8-2.8-5.9-5-9.2-6.2V45.7L56.6,45.7z M49.7,71.3
	c-3.3-1.1-6.4-3.1-9.2-5.7V66v3.4v2.7c2.8,2.8,5.9,5,9.2,6.2V71.3L49.7,71.3z M52,79.1v3.4v7.1V93v7.1v3.4v7.1v3.4v7.1v3.4v7.1v0.4
	h2.3V122v-3.4v-7.1V108V101v-3.4v-7.1V87v-7.1v-3.4v-7.1V66v-7.1v-3.4v-7.1V45v-7.1v-3.4v-7.1V24v-4H52v6.6V30v7.1v3.4v7.1V51v7.1
	v3.4v7.1V72V79.1L52,79.1z M49.7,81.8v7c-3.3-1.2-6.4-3.4-9.2-6.2v-2.7v-3.4v-0.4C43.3,78.8,46.4,80.7,49.7,81.8L49.7,81.8z
	 M49.7,92.3c-3.3-1.1-6.4-3.1-9.2-5.7V87v3.4v2.7c2.8,2.8,5.9,5,9.2,6.2V92.3L49.7,92.3z M49.7,102.8v7c-3.3-1.2-6.4-3.4-9.2-6.2
	V101v-3.4v-0.4C43.3,99.8,46.4,101.7,49.7,102.8L49.7,102.8z M49.7,113.3c-3.3-1.1-6.4-3.1-9.2-5.7v0.4v3.4v2.7
	c2.8,2.8,5.9,5,9.2,6.2V113.3L49.7,113.3z M49.7,123.8v7c-3.3-1.2-6.4-3.4-9.2-6.2V122v-3.4v-0.4C43.3,120.8,46.4,122.7,49.7,123.8
	L49.7,123.8z M49.7,20h-8.8c2.7,2.7,5.6,4.7,8.8,5.8V20L49.7,20z M49.7,29.3v7c-3.3-1.2-6.4-3.4-9.2-6.2v-2.7V24v-0.4
	C43.3,26.3,46.4,28.2,49.7,29.3L49.7,29.3z M49.7,39.8c-3.3-1.1-6.4-3.1-9.2-5.7v0.4v3.4v2.7c2.8,2.8,5.9,5,9.2,6.2V39.8L49.7,39.8z
	 M49.7,50.3v7c-3.3-1.2-6.4-3.4-9.2-6.2v-2.7V45v-0.4C43.3,47.3,46.4,49.2,49.7,50.3L49.7,50.3z M49.7,60.8v7
	c-3.3-1.2-6.4-3.4-9.2-6.2v-2.7v-3.4v-0.4C43.3,57.8,46.4,59.7,49.7,60.8L49.7,60.8z M38.2,63.3v-3.7c-1.6,0.6-3.1,1.4-4.6,2.4v6.8
	c1.5-0.9,3-1.6,4.6-2.2V63.3L38.2,63.3z M33.6,72.5v6.8c1.5-0.9,3-1.6,4.6-2.2v-3.4v-3.7C36.7,70.8,35.1,71.5,33.6,72.5L33.6,72.5z
	 M33.6,83v6.8c1.5-0.9,3-1.6,4.6-2.2v-3.4v-3.7C36.7,81.3,35.1,82,33.6,83L33.6,83z M38.2,56.2v-3.4v-3.7c-1.6,0.6-3.1,1.4-4.6,2.4
	v6.8C35.1,57.5,36.7,56.7,38.2,56.2L38.2,56.2z M38.2,45.7v-3.4v-3.7c-1.6,0.6-3.1,1.4-4.6,2.4v6.8C35.1,47,36.7,46.2,38.2,45.7
	L38.2,45.7z M33.6,93.5v6.8c1.5-0.9,3-1.6,4.6-2.2v-3.4v-3.7C36.7,91.8,35.1,92.5,33.6,93.5L33.6,93.5z M33.6,104v6.8
	c1.5-0.9,3-1.6,4.6-2.2v-3.4v-3.7C36.7,102.3,35.1,103.1,33.6,104L33.6,104z M33.6,114.5v6.8c1.5-0.9,3-1.6,4.6-2.2v-3.4v-3.7
	C36.7,112.8,35.1,113.6,33.6,114.5L33.6,114.5z M33.6,125c0,3.9,2.1,7,4.6,7v-5.7v-3.7C36.7,123.3,35.1,124.1,33.6,125L33.6,125
	L33.6,125z M38.2,35.2v-3.4v-3.7c-1.6,0.6-3.1,1.4-4.6,2.4v6.8C35.1,36.5,36.7,35.7,38.2,35.2L38.2,35.2z M38.2,24.7v-3.4V20
	c-2.5,0-4.6,3.1-4.6,7l0-0.2C35.1,26,36.7,25.2,38.2,24.7L38.2,24.7z M40.5,132h4.3c-1.5-0.9-3-2.1-4.3-3.3V132L40.5,132z
	 M56.6,35.2v-7c3.3,1.2,6.4,3.4,9.2,6.2v2.7v3.4v0.4C63,38.3,59.9,36.3,56.6,35.2L56.6,35.2z M56.6,24.7c3.3,1.1,6.4,3.1,9.2,5.7V30
	v-3.4V20h-9.2V24.7L56.6,24.7z M56.6,132h4.6c1.5-1,2.9-2.2,4.3-3.5c-2.7-2.7-5.6-4.7-8.8-5.8V132L56.6,132z M56.6,119.2v-7
	c3.3,1.2,6.4,3.4,9.2,6.2v2.7v3.4v0.4C63,122.3,59.9,120.3,56.6,119.2L56.6,119.2z M56.6,108.7c3.3,1.1,6.4,3.1,9.2,5.7V114v-3.4
	v-2.7c-2.8-2.8-5.9-5-9.2-6.2V108.7L56.6,108.7z M56.6,98.2v-7c3.3,1.2,6.4,3.4,9.2,6.2v2.7v3.4v0.4C63,101.3,59.9,99.3,56.6,98.2
	L56.6,98.2z M56.6,87.7c3.3,1.1,6.4,3.1,9.2,5.7V93v-3.4v-2.7c-2.8-2.8-5.9-5-9.2-6.2V87.7L56.6,87.7z M56.6,77.2v-7
	c3.3,1.2,6.4,3.4,9.2,6.2v2.7v3.4v0.4C63,80.3,59.9,78.3,56.6,77.2L56.6,77.2z M56.6,66.7c3.3,1.1,6.4,3.1,9.2,5.7V72v-3.4v-2.7
	c-2.8-2.8-5.9-5-9.2-6.2V66.7L56.6,66.7z M56.6,56.2v-7c3.3,1.2,6.4,3.4,9.2,6.2v2.7v3.4v0.4C63,59.3,59.9,57.3,56.6,56.2L56.6,56.2
	z M68.1,53.7v3.7c1.6-0.6,3.1-1.4,4.6-2.4v-6.8c-1.5,0.9-3,1.6-4.6,2.2V53.7L68.1,53.7z M68.1,60.8v3.4v3.7c1.6-0.6,3.1-1.4,4.6-2.4
	v-6.8C71.2,59.6,69.6,60.3,68.1,60.8L68.1,60.8z M68.1,71.3v3.4v3.7c1.6-0.6,3.1-1.4,4.6-2.4v-6.8C71.2,70.1,69.6,70.8,68.1,71.3
	L68.1,71.3z M68.1,81.8v3.4v3.7c1.6-0.6,3.1-1.4,4.6-2.4v-6.8C71.2,80.6,69.6,81.3,68.1,81.8L68.1,81.8z M68.1,92.3v3.4v3.7
	c1.6-0.6,3.1-1.4,4.6-2.4v-6.8C71.2,91.1,69.6,91.8,68.1,92.3L68.1,92.3z M72.6,44.5v-6.8c-1.5,0.9-3,1.6-4.6,2.2v3.4v3.7
	C69.6,46.3,71.2,45.5,72.6,44.5L72.6,44.5z M72.6,34v-6.8c-1.5,0.9-3,1.6-4.6,2.2v3.4v3.7C69.6,35.8,71.2,35,72.6,34L72.6,34z
	 M72.1,23.8c-0.8-2.3-2.3-3.8-4.1-3.8v5.8C69.5,25.3,70.8,24.6,72.1,23.8L72.1,23.8z M68.1,102.8v3.4v3.7c1.6-0.6,3.1-1.4,4.6-2.4
	v-6.8C71.2,101.6,69.6,102.3,68.1,102.8L68.1,102.8z M68.1,113.3v3.4v3.7c1.6-0.6,3.1-1.4,4.6-2.4v-6.8
	C71.2,112.1,69.6,112.8,68.1,113.3L68.1,113.3z M68.1,123.8v1.7v1.7v2.6v1.7v0.5c2.5,0,4.6-3.1,4.6-7v-3.3
	C71.2,122.6,69.6,123.3,68.1,123.8z"/>
<path d="M125.4,45.7c3.3,1.1,6.4,3.1,9.2,5.7V51v-3.4v-2.7c-2.8-2.8-5.9-5-9.2-6.2V45.7L125.4,45.7z M118.5,71.3
	c-3.3-1.1-6.4-3.1-9.2-5.7V66v3.4v2.7c2.8,2.8,5.9,5,9.2,6.2V71.3L118.5,71.3z M120.8,79.1v3.4v7.1V93v7.1v3.4v7.1v3.4v7.1v3.4v7.1
	v0.4h2.3V122v-3.4v-7.1V108V101v-3.4v-7.1V87v-7.1v-3.4v-7.1V66v-7.1v-3.4v-7.1V45v-7.1v-3.4v-7.1V24v-4h-2.3v6.6V30v7.1v3.4v7.1V51
	v7.1v3.4v7.1V72V79.1L120.8,79.1z M118.5,81.8v7c-3.3-1.2-6.4-3.4-9.2-6.2v-2.7v-3.4v-0.4C112.2,78.8,115.2,80.7,118.5,81.8
	L118.5,81.8z M118.5,92.3c-3.3-1.1-6.4-3.1-9.2-5.7V87v3.4v2.7c2.8,2.8,5.9,5,9.2,6.2V92.3L118.5,92.3z M118.5,102.8v7
	c-3.3-1.2-6.4-3.4-9.2-6.2V101v-3.4v-0.4C112.2,99.8,115.2,101.7,118.5,102.8L118.5,102.8z M118.5,113.3c-3.3-1.1-6.4-3.1-9.2-5.7
	v0.4v3.4v2.7c2.8,2.8,5.9,5,9.2,6.2V113.3L118.5,113.3z M118.5,123.8v7c-3.3-1.2-6.4-3.4-9.2-6.2V122v-3.4v-0.4
	C112.2,120.8,115.2,122.7,118.5,123.8L118.5,123.8z M118.5,20h-8.8c2.7,2.7,5.6,4.7,8.8,5.8V20L118.5,20z M118.5,29.3v7
	c-3.3-1.2-6.4-3.4-9.2-6.2v-2.7V24v-0.4C112.2,26.3,115.2,28.2,118.5,29.3L118.5,29.3z M118.5,39.8c-3.3-1.1-6.4-3.1-9.2-5.7v0.4
	v3.4v2.7c2.8,2.8,5.9,5,9.2,6.2V39.8L118.5,39.8z M118.5,50.3v7c-3.3-1.2-6.4-3.4-9.2-6.2v-2.7V45v-0.4
	C112.2,47.3,115.2,49.2,118.5,50.3L118.5,50.3z M118.5,60.8v7c-3.3-1.2-6.4-3.4-9.2-6.2v-2.7v-3.4v-0.4
	C112.2,57.8,115.2,59.7,118.5,60.8L118.5,60.8z M107.1,63.3v-3.7c-1.6,0.6-3.1,1.4-4.6,2.4v6.8c1.5-0.9,3-1.6,4.6-2.2V63.3
	L107.1,63.3z M102.5,72.5v6.8c1.5-0.9,3-1.6,4.6-2.2v-3.4v-3.7C105.5,70.8,103.9,71.5,102.5,72.5L102.5,72.5z M102.5,83v6.8
	c1.5-0.9,3-1.6,4.6-2.2v-3.4v-3.7C105.5,81.3,103.9,82,102.5,83L102.5,83z M107.1,56.2v-3.4v-3.7c-1.6,0.6-3.1,1.4-4.6,2.4v6.8
	C103.9,57.5,105.5,56.7,107.1,56.2L107.1,56.2z M107.1,45.7v-3.4v-3.7c-1.6,0.6-3.1,1.4-4.6,2.4v6.8C103.9,47,105.5,46.2,107.1,45.7
	L107.1,45.7z M102.5,93.5v6.8c1.5-0.9,3-1.6,4.6-2.2v-3.4v-3.7C105.5,91.8,103.9,92.5,102.5,93.5L102.5,93.5z M102.5,104v6.8
	c1.5-0.9,3-1.6,4.6-2.2v-3.4v-3.7C105.5,102.3,103.9,103.1,102.5,104L102.5,104z M102.5,114.5v6.8c1.5-0.9,3-1.6,4.6-2.2v-3.4v-3.7
	C105.5,112.8,103.9,113.6,102.5,114.5L102.5,114.5z M102.5,125c0,3.9,2.1,7,4.6,7v-5.7v-3.7C105.5,123.3,103.9,124.1,102.5,125
	L102.5,125L102.5,125z M107.1,35.2v-3.4v-3.7c-1.6,0.6-3.1,1.4-4.6,2.4v6.8C103.9,36.5,105.5,35.7,107.1,35.2L107.1,35.2z
	 M107.1,24.7v-3.4V20c-2.5,0-4.6,3.1-4.6,7l0-0.2C103.9,26,105.5,25.2,107.1,24.7L107.1,24.7z M109.4,132h4.3
	c-1.5-0.9-3-2.1-4.3-3.3V132L109.4,132z M125.4,35.2v-7c3.3,1.2,6.4,3.4,9.2,6.2v2.7v3.4v0.4C131.8,38.3,128.7,36.3,125.4,35.2
	L125.4,35.2z M125.4,24.7c3.3,1.1,6.4,3.1,9.2,5.7V30v-3.4V20h-9.2V24.7L125.4,24.7z M125.4,132h4.6c1.5-1,2.9-2.2,4.3-3.5
	c-2.7-2.7-5.6-4.7-8.8-5.8V132L125.4,132z M125.4,119.2v-7c3.3,1.2,6.4,3.4,9.2,6.2v2.7v3.4v0.4
	C131.8,122.3,128.7,120.3,125.4,119.2L125.4,119.2z M125.4,108.7c3.3,1.1,6.4,3.1,9.2,5.7V114v-3.4v-2.7c-2.8-2.8-5.9-5-9.2-6.2
	V108.7L125.4,108.7z M125.4,98.2v-7c3.3,1.2,6.4,3.4,9.2,6.2v2.7v3.4v0.4C131.8,101.3,128.7,99.3,125.4,98.2L125.4,98.2z
	 M125.4,87.7c3.3,1.1,6.4,3.1,9.2,5.7V93v-3.4v-2.7c-2.8-2.8-5.9-5-9.2-6.2V87.7L125.4,87.7z M125.4,77.2v-7
	c3.3,1.2,6.4,3.4,9.2,6.2v2.7v3.4v0.4C131.8,80.3,128.7,78.3,125.4,77.2L125.4,77.2z M125.4,66.7c3.3,1.1,6.4,3.1,9.2,5.7V72v-3.4
	v-2.7c-2.8-2.8-5.9-5-9.2-6.2V66.7L125.4,66.7z M125.4,56.2v-7c3.3,1.2,6.4,3.4,9.2,6.2v2.7v3.4v0.4
	C131.8,59.3,128.7,57.3,125.4,56.2L125.4,56.2z M136.9,53.7v3.7c1.6-0.6,3.1-1.4,4.6-2.4v-6.8c-1.5,0.9-3,1.6-4.6,2.2V53.7
	L136.9,53.7z M136.9,60.8v3.4v3.7c1.6-0.6,3.1-1.4,4.6-2.4v-6.8C140,59.6,138.5,60.3,136.9,60.8L136.9,60.8z M136.9,71.3v3.4v3.7
	c1.6-0.6,3.1-1.4,4.6-2.4v-6.8C140,70.1,138.5,70.8,136.9,71.3L136.9,71.3z M136.9,81.8v3.4v3.7c1.6-0.6,3.1-1.4,4.6-2.4v-6.8
	C140,80.6,138.5,81.3,136.9,81.8L136.9,81.8z M136.9,92.3v3.4v3.7c1.6-0.6,3.1-1.4,4.6-2.4v-6.8C140,91.1,138.5,91.8,136.9,92.3
	L136.9,92.3z M141.5,44.5v-6.8c-1.5,0.9-3,1.6-4.6,2.2v3.4v3.7C138.5,46.3,140,45.5,141.5,44.5L141.5,44.5z M141.5,34v-6.8
	c-1.5,0.9-3,1.6-4.6,2.2v3.4v3.7C138.5,35.8,140,35,141.5,34L141.5,34z M141,23.8c-0.8-2.3-2.3-3.8-4.1-3.8v5.8
	C138.3,25.3,139.7,24.6,141,23.8L141,23.8z M136.9,102.8v3.4v3.7c1.6-0.6,3.1-1.4,4.6-2.4v-6.8C140,101.6,138.5,102.3,136.9,102.8
	L136.9,102.8z M136.9,113.3v3.4v3.7c1.6-0.6,3.1-1.4,4.6-2.4v-6.8C140,112.1,138.5,112.8,136.9,113.3L136.9,113.3z M136.9,123.8v1.7
	v1.7v2.6v1.7v0.5c2.5,0,4.6-3.1,4.6-7v-3.3C140,122.6,138.5,123.3,136.9,123.8z"/>
<path d="M196.9,45.7c3.3,1.1,6.4,3.1,9.2,5.7V51v-3.4v-2.7c-2.8-2.8-5.9-5-9.2-6.2V45.7L196.9,45.7z M190,71.3
	c-3.3-1.1-6.4-3.1-9.2-5.7V66v3.4v2.7c2.8,2.8,5.9,5,9.2,6.2V71.3L190,71.3z M192.3,79.1v3.4v7.1V93v7.1v3.4v7.1v3.4v7.1v3.4v7.1
	v0.4h2.3V122v-3.4v-7.1V108V101v-3.4v-7.1V87v-7.1v-3.4v-7.1V66v-7.1v-3.4v-7.1V45v-7.1v-3.4v-7.1V24v-4h-2.3v6.6V30v7.1v3.4v7.1V51
	v7.1v3.4v7.1V72V79.1L192.3,79.1z M190,81.8v7c-3.3-1.2-6.4-3.4-9.2-6.2v-2.7v-3.4v-0.4C183.6,78.8,186.7,80.7,190,81.8L190,81.8z
	 M190,92.3c-3.3-1.1-6.4-3.1-9.2-5.7V87v3.4v2.7c2.8,2.8,5.9,5,9.2,6.2V92.3L190,92.3z M190,102.8v7c-3.3-1.2-6.4-3.4-9.2-6.2V101
	v-3.4v-0.4C183.6,99.8,186.7,101.7,190,102.8L190,102.8z M190,113.3c-3.3-1.1-6.4-3.1-9.2-5.7v0.4v3.4v2.7c2.8,2.8,5.9,5,9.2,6.2
	V113.3L190,113.3z M190,123.8v7c-3.3-1.2-6.4-3.4-9.2-6.2V122v-3.4v-0.4C183.6,120.8,186.7,122.7,190,123.8L190,123.8z M190,20h-8.8
	c2.7,2.7,5.6,4.7,8.8,5.8V20L190,20z M190,29.3v7c-3.3-1.2-6.4-3.4-9.2-6.2v-2.7V24v-0.4C183.6,26.3,186.7,28.2,190,29.3L190,29.3z
	 M190,39.8c-3.3-1.1-6.4-3.1-9.2-5.7v0.4v3.4v2.7c2.8,2.8,5.9,5,9.2,6.2V39.8L190,39.8z M190,50.3v7c-3.3-1.2-6.4-3.4-9.2-6.2v-2.7
	V45v-0.4C183.6,47.3,186.7,49.2,190,50.3L190,50.3z M190,60.8v7c-3.3-1.2-6.4-3.4-9.2-6.2v-2.7v-3.4v-0.4
	C183.6,57.8,186.7,59.7,190,60.8L190,60.8z M178.5,63.3v-3.7c-1.6,0.6-3.1,1.4-4.6,2.4v6.8c1.5-0.9,3-1.6,4.6-2.2V63.3L178.5,63.3z
	 M173.9,72.5v6.8c1.5-0.9,3-1.6,4.6-2.2v-3.4v-3.7C176.9,70.8,175.4,71.5,173.9,72.5L173.9,72.5z M173.9,83v6.8
	c1.5-0.9,3-1.6,4.6-2.2v-3.4v-3.7C176.9,81.3,175.4,82,173.9,83L173.9,83z M178.5,56.2v-3.4v-3.7c-1.6,0.6-3.1,1.4-4.6,2.4v6.8
	C175.4,57.5,177,56.7,178.5,56.2L178.5,56.2z M178.5,45.7v-3.4v-3.7c-1.6,0.6-3.1,1.4-4.6,2.4v6.8C175.4,47,177,46.2,178.5,45.7
	L178.5,45.7z M173.9,93.5v6.8c1.5-0.9,3-1.6,4.6-2.2v-3.4v-3.7C176.9,91.8,175.4,92.5,173.9,93.5L173.9,93.5z M173.9,104v6.8
	c1.5-0.9,3-1.6,4.6-2.2v-3.4v-3.7C176.9,102.3,175.4,103.1,173.9,104L173.9,104z M173.9,114.5v6.8c1.5-0.9,3-1.6,4.6-2.2v-3.4v-3.7
	C176.9,112.8,175.4,113.6,173.9,114.5L173.9,114.5z M173.9,125c0,3.9,2.1,7,4.6,7v-5.7v-3.7C176.9,123.3,175.4,124.1,173.9,125
	L173.9,125L173.9,125z M178.5,35.2v-3.4v-3.7c-1.6,0.6-3.1,1.4-4.6,2.4v6.8C175.4,36.5,177,35.7,178.5,35.2L178.5,35.2z M178.5,24.7
	v-3.4V20c-2.5,0-4.6,3.1-4.6,7l0-0.2C175.4,26,177,25.2,178.5,24.7L178.5,24.7z M180.8,132h4.3c-1.5-0.9-3-2.1-4.3-3.3V132
	L180.8,132z M196.9,35.2v-7c3.3,1.2,6.4,3.4,9.2,6.2v2.7v3.4v0.4C203.3,38.3,200.2,36.3,196.9,35.2L196.9,35.2z M196.9,24.7
	c3.3,1.1,6.4,3.1,9.2,5.7V30v-3.4V20h-9.2V24.7L196.9,24.7z M196.9,132h4.6c1.5-1,2.9-2.2,4.3-3.5c-2.7-2.7-5.6-4.7-8.8-5.8V132
	L196.9,132z M196.9,119.2v-7c3.3,1.2,6.4,3.4,9.2,6.2v2.7v3.4v0.4C203.3,122.3,200.2,120.3,196.9,119.2L196.9,119.2z M196.9,108.7
	c3.3,1.1,6.4,3.1,9.2,5.7V114v-3.4v-2.7c-2.8-2.8-5.9-5-9.2-6.2V108.7L196.9,108.7z M196.9,98.2v-7c3.3,1.2,6.4,3.4,9.2,6.2v2.7v3.4
	v0.4C203.3,101.3,200.2,99.3,196.9,98.2L196.9,98.2z M196.9,87.7c3.3,1.1,6.4,3.1,9.2,5.7V93v-3.4v-2.7c-2.8-2.8-5.9-5-9.2-6.2V87.7
	L196.9,87.7z M196.9,77.2v-7c3.3,1.2,6.4,3.4,9.2,6.2v2.7v3.4v0.4C203.3,80.3,200.2,78.3,196.9,77.2L196.9,77.2z M196.9,66.7
	c3.3,1.1,6.4,3.1,9.2,5.7V72v-3.4v-2.7c-2.8-2.8-5.9-5-9.2-6.2V66.7L196.9,66.7z M196.9,56.2v-7c3.3,1.2,6.4,3.4,9.2,6.2v2.7v3.4
	v0.4C203.3,59.3,200.2,57.3,196.9,56.2L196.9,56.2z M208.4,53.7v3.7c1.6-0.6,3.1-1.4,4.6-2.4v-6.8c-1.5,0.9-3,1.6-4.6,2.2V53.7
	L208.4,53.7z M208.4,60.8v3.4v3.7c1.6-0.6,3.1-1.4,4.6-2.4v-6.8C211.5,59.6,209.9,60.3,208.4,60.8L208.4,60.8z M208.4,71.3v3.4v3.7
	c1.6-0.6,3.1-1.4,4.6-2.4v-6.8C211.5,70.1,209.9,70.8,208.4,71.3L208.4,71.3z M208.4,81.8v3.4v3.7c1.6-0.6,3.1-1.4,4.6-2.4v-6.8
	C211.5,80.6,209.9,81.3,208.4,81.8L208.4,81.8z M208.4,92.3v3.4v3.7c1.6-0.6,3.1-1.4,4.6-2.4v-6.8C211.5,91.1,209.9,91.8,208.4,92.3
	L208.4,92.3z M212.9,44.5v-6.8c-1.5,0.9-3,1.6-4.6,2.2v3.4v3.7C209.9,46.3,211.5,45.5,212.9,44.5L212.9,44.5z M212.9,34v-6.8
	c-1.5,0.9-3,1.6-4.6,2.2v3.4v3.7C209.9,35.8,211.5,35,212.9,34L212.9,34z M212.4,23.8c-0.8-2.3-2.3-3.8-4.1-3.8v5.8
	C209.8,25.3,211.1,24.6,212.4,23.8L212.4,23.8z M208.4,102.8v3.4v3.7c1.6-0.6,3.1-1.4,4.6-2.4v-6.8
	C211.5,101.6,209.9,102.3,208.4,102.8L208.4,102.8z M208.4,113.3v3.4v3.7c1.6-0.6,3.1-1.4,4.6-2.4v-6.8
	C211.5,112.1,209.9,112.8,208.4,113.3L208.4,113.3z M208.4,123.8v1.7v1.7v2.6v1.7v0.5c2.5,0,4.6-3.1,4.6-7v-3.3
	C211.5,122.6,209.9,123.3,208.4,123.8z"/>
<path d="M270.4,45.7c3.3,1.1,6.4,3.1,9.2,5.7V51v-3.4v-2.7c-2.8-2.8-5.9-5-9.2-6.2V45.7L270.4,45.7z M263.5,71.3
	c-3.3-1.1-6.4-3.1-9.2-5.7V66v3.4v2.7c2.8,2.8,5.9,5,9.2,6.2V71.3L263.5,71.3z M265.8,79.1v3.4v7.1V93v7.1v3.4v7.1v3.4v7.1v3.4v7.1
	v0.4h2.3V122v-3.4v-7.1V108V101v-3.4v-7.1V87v-7.1v-3.4v-7.1V66v-7.1v-3.4v-7.1V45v-7.1v-3.4v-7.1V24v-4h-2.3v6.6V30v7.1v3.4v7.1V51
	v7.1v3.4v7.1V72V79.1L265.8,79.1z M263.5,81.8v7c-3.3-1.2-6.4-3.4-9.2-6.2v-2.7v-3.4v-0.4C257.2,78.8,260.2,80.7,263.5,81.8
	L263.5,81.8z M263.5,92.3c-3.3-1.1-6.4-3.1-9.2-5.7V87v3.4v2.7c2.8,2.8,5.9,5,9.2,6.2V92.3L263.5,92.3z M263.5,102.8v7
	c-3.3-1.2-6.4-3.4-9.2-6.2V101v-3.4v-0.4C257.2,99.8,260.2,101.7,263.5,102.8L263.5,102.8z M263.5,113.3c-3.3-1.1-6.4-3.1-9.2-5.7
	v0.4v3.4v2.7c2.8,2.8,5.9,5,9.2,6.2V113.3L263.5,113.3z M263.5,123.8v7c-3.3-1.2-6.4-3.4-9.2-6.2V122v-3.4v-0.4
	C257.2,120.8,260.2,122.7,263.5,123.8L263.5,123.8z M263.5,20h-8.8c2.7,2.7,5.6,4.7,8.8,5.8V20L263.5,20z M263.5,29.3v7
	c-3.3-1.2-6.4-3.4-9.2-6.2v-2.7V24v-0.4C257.2,26.3,260.2,28.2,263.5,29.3L263.5,29.3z M263.5,39.8c-3.3-1.1-6.4-3.1-9.2-5.7v0.4
	v3.4v2.7c2.8,2.8,5.9,5,9.2,6.2V39.8L263.5,39.8z M263.5,50.3v7c-3.3-1.2-6.4-3.4-9.2-6.2v-2.7V45v-0.4
	C257.2,47.3,260.2,49.2,263.5,50.3L263.5,50.3z M263.5,60.8v7c-3.3-1.2-6.4-3.4-9.2-6.2v-2.7v-3.4v-0.4
	C257.2,57.8,260.2,59.7,263.5,60.8L263.5,60.8z M252.1,63.3v-3.7c-1.6,0.6-3.1,1.4-4.6,2.4v6.8c1.5-0.9,3-1.6,4.6-2.2V63.3
	L252.1,63.3z M247.5,72.5v6.8c1.5-0.9,3-1.6,4.6-2.2v-3.4v-3.7C250.5,70.8,248.9,71.5,247.5,72.5L247.5,72.5z M247.5,83v6.8
	c1.5-0.9,3-1.6,4.6-2.2v-3.4v-3.7C250.5,81.3,248.9,82,247.5,83L247.5,83z M252.1,56.2v-3.4v-3.7c-1.6,0.6-3.1,1.4-4.6,2.4v6.8
	C249,57.5,250.5,56.7,252.1,56.2L252.1,56.2z M252.1,45.7v-3.4v-3.7c-1.6,0.6-3.1,1.4-4.6,2.4v6.8C249,47,250.5,46.2,252.1,45.7
	L252.1,45.7z M247.5,93.5v6.8c1.5-0.9,3-1.6,4.6-2.2v-3.4v-3.7C250.5,91.8,248.9,92.5,247.5,93.5L247.5,93.5z M247.5,104v6.8
	c1.5-0.9,3-1.6,4.6-2.2v-3.4v-3.7C250.5,102.3,248.9,103.1,247.5,104L247.5,104z M247.5,114.5v6.8c1.5-0.9,3-1.6,4.6-2.2v-3.4v-3.7
	C250.5,112.8,248.9,113.6,247.5,114.5L247.5,114.5z M247.5,125c0,3.9,2.1,7,4.6,7v-5.7v-3.7C250.5,123.3,248.9,124.1,247.5,125
	L247.5,125L247.5,125z M252.1,35.2v-3.4v-3.7c-1.6,0.6-3.1,1.4-4.6,2.4v6.8C249,36.5,250.5,35.7,252.1,35.2L252.1,35.2z M252.1,24.7
	v-3.4V20c-2.5,0-4.6,3.1-4.6,7l0-0.2C249,26,250.5,25.2,252.1,24.7L252.1,24.7z M254.4,132h4.3c-1.5-0.9-3-2.1-4.3-3.3V132
	L254.4,132z M270.4,35.2v-7c3.3,1.2,6.4,3.4,9.2,6.2v2.7v3.4v0.4C276.8,38.3,273.7,36.3,270.4,35.2L270.4,35.2z M270.4,24.7
	c3.3,1.1,6.4,3.1,9.2,5.7V30v-3.4V20h-9.2V24.7L270.4,24.7z M270.4,132h4.6c1.5-1,2.9-2.2,4.3-3.5c-2.7-2.7-5.6-4.7-8.8-5.8V132
	L270.4,132z M270.4,119.2v-7c3.3,1.2,6.4,3.4,9.2,6.2v2.7v3.4v0.4C276.8,122.3,273.7,120.3,270.4,119.2L270.4,119.2z M270.4,108.7
	c3.3,1.1,6.4,3.1,9.2,5.7V114v-3.4v-2.7c-2.8-2.8-5.9-5-9.2-6.2V108.7L270.4,108.7z M270.4,98.2v-7c3.3,1.2,6.4,3.4,9.2,6.2v2.7v3.4
	v0.4C276.8,101.3,273.7,99.3,270.4,98.2L270.4,98.2z M270.4,87.7c3.3,1.1,6.4,3.1,9.2,5.7V93v-3.4v-2.7c-2.8-2.8-5.9-5-9.2-6.2V87.7
	L270.4,87.7z M270.4,77.2v-7c3.3,1.2,6.4,3.4,9.2,6.2v2.7v3.4v0.4C276.8,80.3,273.7,78.3,270.4,77.2L270.4,77.2z M270.4,66.7
	c3.3,1.1,6.4,3.1,9.2,5.7V72v-3.4v-2.7c-2.8-2.8-5.9-5-9.2-6.2V66.7L270.4,66.7z M270.4,56.2v-7c3.3,1.2,6.4,3.4,9.2,6.2v2.7v3.4
	v0.4C276.8,59.3,273.7,57.3,270.4,56.2L270.4,56.2z M281.9,53.7v3.7c1.6-0.6,3.1-1.4,4.6-2.4v-6.8c-1.5,0.9-3,1.6-4.6,2.2V53.7
	L281.9,53.7z M281.9,60.8v3.4v3.7c1.6-0.6,3.1-1.4,4.6-2.4v-6.8C285,59.6,283.5,60.3,281.9,60.8L281.9,60.8z M281.9,71.3v3.4v3.7
	c1.6-0.6,3.1-1.4,4.6-2.4v-6.8C285,70.1,283.5,70.8,281.9,71.3L281.9,71.3z M281.9,81.8v3.4v3.7c1.6-0.6,3.1-1.4,4.6-2.4v-6.8
	C285,80.6,283.5,81.3,281.9,81.8L281.9,81.8z M281.9,92.3v3.4v3.7c1.6-0.6,3.1-1.4,4.6-2.4v-6.8C285,91.1,283.5,91.8,281.9,92.3
	L281.9,92.3z M286.5,44.5v-6.8c-1.5,0.9-3,1.6-4.6,2.2v3.4v3.7C283.5,46.3,285,45.5,286.5,44.5L286.5,44.5z M286.5,34v-6.8
	c-1.5,0.9-3,1.6-4.6,2.2v3.4v3.7C283.5,35.8,285,35,286.5,34L286.5,34z M286,23.8c-0.8-2.3-2.3-3.8-4.1-3.8v5.8
	C283.3,25.3,284.7,24.6,286,23.8L286,23.8z M281.9,102.8v3.4v3.7c1.6-0.6,3.1-1.4,4.6-2.4v-6.8C285,101.6,283.5,102.3,281.9,102.8
	L281.9,102.8z M281.9,113.3v3.4v3.7c1.6-0.6,3.1-1.4,4.6-2.4v-6.8C285,112.1,283.5,112.8,281.9,113.3L281.9,113.3z M281.9,123.8v1.7
	v1.7v2.6v1.7v0.5c2.5,0,4.6-3.1,4.6-7v-3.3C285,122.6,283.5,123.3,281.9,123.8z"/>
<path d="M339.2,45.7c3.3,1.1,6.4,3.1,9.2,5.7V51v-3.4v-2.7c-2.8-2.8-5.9-5-9.2-6.2V45.7L339.2,45.7z M332.4,71.3
	c-3.3-1.1-6.4-3.1-9.2-5.7V66v3.4v2.7c2.8,2.8,5.9,5,9.2,6.2V71.3L332.4,71.3z M334.7,79.1v3.4v7.1V93v7.1v3.4v7.1v3.4v7.1v3.4v7.1
	v0.4h2.3V122v-3.4v-7.1V108V101v-3.4v-7.1V87v-7.1v-3.4v-7.1V66v-7.1v-3.4v-7.1V45v-7.1v-3.4v-7.1V24v-4h-2.3v6.6V30v7.1v3.4v7.1V51
	v7.1v3.4v7.1V72V79.1L334.7,79.1z M332.4,81.8v7c-3.3-1.2-6.4-3.4-9.2-6.2v-2.7v-3.4v-0.4C326,78.8,329.1,80.7,332.4,81.8
	L332.4,81.8z M332.4,92.3c-3.3-1.1-6.4-3.1-9.2-5.7V87v3.4v2.7c2.8,2.8,5.9,5,9.2,6.2V92.3L332.4,92.3z M332.4,102.8v7
	c-3.3-1.2-6.4-3.4-9.2-6.2V101v-3.4v-0.4C326,99.8,329.1,101.7,332.4,102.8L332.4,102.8z M332.4,113.3c-3.3-1.1-6.4-3.1-9.2-5.7v0.4
	v3.4v2.7c2.8,2.8,5.9,5,9.2,6.2V113.3L332.4,113.3z M332.4,123.8v7c-3.3-1.2-6.4-3.4-9.2-6.2V122v-3.4v-0.4
	C326,120.8,329.1,122.7,332.4,123.8L332.4,123.8z M332.4,20h-8.8c2.7,2.7,5.6,4.7,8.8,5.8V20L332.4,20z M332.4,29.3v7
	c-3.3-1.2-6.4-3.4-9.2-6.2v-2.7V24v-0.4C326,26.3,329.1,28.2,332.4,29.3L332.4,29.3z M332.4,39.8c-3.3-1.1-6.4-3.1-9.2-5.7v0.4v3.4
	v2.7c2.8,2.8,5.9,5,9.2,6.2V39.8L332.4,39.8z M332.4,50.3v7c-3.3-1.2-6.4-3.4-9.2-6.2v-2.7V45v-0.4C326,47.3,329.1,49.2,332.4,50.3
	L332.4,50.3z M332.4,60.8v7c-3.3-1.2-6.4-3.4-9.2-6.2v-2.7v-3.4v-0.4C326,57.8,329.1,59.7,332.4,60.8L332.4,60.8z M320.9,63.3v-3.7
	c-1.6,0.6-3.1,1.4-4.6,2.4v6.8c1.5-0.9,3-1.6,4.6-2.2V63.3L320.9,63.3z M316.3,72.5v6.8c1.5-0.9,3-1.6,4.6-2.2v-3.4v-3.7
	C319.3,70.8,317.8,71.5,316.3,72.5L316.3,72.5z M316.3,83v6.8c1.5-0.9,3-1.6,4.6-2.2v-3.4v-3.7C319.3,81.3,317.8,82,316.3,83
	L316.3,83z M320.9,56.2v-3.4v-3.7c-1.6,0.6-3.1,1.4-4.6,2.4v6.8C317.8,57.5,319.3,56.7,320.9,56.2L320.9,56.2z M320.9,45.7v-3.4
	v-3.7c-1.6,0.6-3.1,1.4-4.6,2.4v6.8C317.8,47,319.3,46.2,320.9,45.7L320.9,45.7z M316.3,93.5v6.8c1.5-0.9,3-1.6,4.6-2.2v-3.4v-3.7
	C319.3,91.8,317.8,92.5,316.3,93.5L316.3,93.5z M316.3,104v6.8c1.5-0.9,3-1.6,4.6-2.2v-3.4v-3.7C319.3,102.3,317.8,103.1,316.3,104
	L316.3,104z M316.3,114.5v6.8c1.5-0.9,3-1.6,4.6-2.2v-3.4v-3.7C319.3,112.8,317.8,113.6,316.3,114.5L316.3,114.5z M316.3,125
	c0,3.9,2.1,7,4.6,7v-5.7v-3.7C319.3,123.3,317.8,124.1,316.3,125L316.3,125L316.3,125z M320.9,35.2v-3.4v-3.7
	c-1.6,0.6-3.1,1.4-4.6,2.4v6.8C317.8,36.5,319.3,35.7,320.9,35.2L320.9,35.2z M320.9,24.7v-3.4V20c-2.5,0-4.6,3.1-4.6,7l0-0.2
	C317.8,26,319.3,25.2,320.9,24.7L320.9,24.7z M323.2,132h4.3c-1.5-0.9-3-2.1-4.3-3.3V132L323.2,132z M339.2,35.2v-7
	c3.3,1.2,6.4,3.4,9.2,6.2v2.7v3.4v0.4C345.6,38.3,342.5,36.3,339.2,35.2L339.2,35.2z M339.2,24.7c3.3,1.1,6.4,3.1,9.2,5.7V30v-3.4
	V20h-9.2V24.7L339.2,24.7z M339.2,132h4.6c1.5-1,2.9-2.2,4.3-3.5c-2.7-2.7-5.6-4.7-8.8-5.8V132L339.2,132z M339.2,119.2v-7
	c3.3,1.2,6.4,3.4,9.2,6.2v2.7v3.4v0.4C345.6,122.3,342.5,120.3,339.2,119.2L339.2,119.2z M339.2,108.7c3.3,1.1,6.4,3.1,9.2,5.7V114
	v-3.4v-2.7c-2.8-2.8-5.9-5-9.2-6.2V108.7L339.2,108.7z M339.2,98.2v-7c3.3,1.2,6.4,3.4,9.2,6.2v2.7v3.4v0.4
	C345.6,101.3,342.5,99.3,339.2,98.2L339.2,98.2z M339.2,87.7c3.3,1.1,6.4,3.1,9.2,5.7V93v-3.4v-2.7c-2.8-2.8-5.9-5-9.2-6.2V87.7
	L339.2,87.7z M339.2,77.2v-7c3.3,1.2,6.4,3.4,9.2,6.2v2.7v3.4v0.4C345.6,80.3,342.5,78.3,339.2,77.2L339.2,77.2z M339.2,66.7
	c3.3,1.1,6.4,3.1,9.2,5.7V72v-3.4v-2.7c-2.8-2.8-5.9-5-9.2-6.2V66.7L339.2,66.7z M339.2,56.2v-7c3.3,1.2,6.4,3.4,9.2,6.2v2.7v3.4
	v0.4C345.6,59.3,342.5,57.3,339.2,56.2L339.2,56.2z M350.7,53.7v3.7c1.6-0.6,3.1-1.4,4.6-2.4v-6.8c-1.5,0.9-3,1.6-4.6,2.2V53.7
	L350.7,53.7z M350.7,60.8v3.4v3.7c1.6-0.6,3.1-1.4,4.6-2.4v-6.8C353.8,59.6,352.3,60.3,350.7,60.8L350.7,60.8z M350.7,71.3v3.4v3.7
	c1.6-0.6,3.1-1.4,4.6-2.4v-6.8C353.8,70.1,352.3,70.8,350.7,71.3L350.7,71.3z M350.7,81.8v3.4v3.7c1.6-0.6,3.1-1.4,4.6-2.4v-6.8
	C353.8,80.6,352.3,81.3,350.7,81.8L350.7,81.8z M350.7,92.3v3.4v3.7c1.6-0.6,3.1-1.4,4.6-2.4v-6.8C353.8,91.1,352.3,91.8,350.7,92.3
	L350.7,92.3z M355.3,44.5v-6.8c-1.5,0.9-3,1.6-4.6,2.2v3.4v3.7C352.3,46.3,353.8,45.5,355.3,44.5L355.3,44.5z M355.3,34v-6.8
	c-1.5,0.9-3,1.6-4.6,2.2v3.4v3.7C352.3,35.8,353.8,35,355.3,34L355.3,34z M354.8,23.8c-0.8-2.3-2.3-3.8-4.1-3.8v5.8
	C352.1,25.3,353.5,24.6,354.8,23.8L354.8,23.8z M350.7,102.8v3.4v3.7c1.6-0.6,3.1-1.4,4.6-2.4v-6.8
	C353.8,101.6,352.3,102.3,350.7,102.8L350.7,102.8z M350.7,113.3v3.4v3.7c1.6-0.6,3.1-1.4,4.6-2.4v-6.8
	C353.8,112.1,352.3,112.8,350.7,113.3L350.7,113.3z M350.7,123.8v1.7v1.7v2.6v1.7v0.5c2.5,0,4.6-3.1,4.6-7v-3.3
	C353.8,122.6,352.3,123.3,350.7,123.8z"/>
<path d="M410.7,45c3.3,1.1,6.4,3.1,9.2,5.7v-0.4v-3.4v-2.7c-2.8-2.8-5.9-5-9.2-6.2V45L410.7,45z M403.3,70.9c-3.1-1.1-6-2.9-8.6-5.3
	v0.3v3.2v2.5c2.6,2.7,5.5,4.7,8.6,5.8V70.9L403.3,70.9z M406.1,78.4v3.4v7.1v3.4v7.1v3.4v7.1v3.4v7.1v3.4v7.1v0.4h2.3v-10.1v-3.4
	v-7.1v-3.4v-7.1v-3.4v-7.1v-3.4v-7.1v-3.4v-7.1v-3.4v-7.1v-3.4v-7.1v-3.4v-7.1v-3.4v-7.1v-3.4v-4h-2.3v6.6v3.4v7.1v3.4v7.1v3.4v7.1
	v3.4v7.1v3.4V78.4L406.1,78.4z M403.3,80.8v6.6c-3.1-1.2-6-3.2-8.6-5.8V79v-3.2v-0.3C397.4,77.9,400.2,79.7,403.3,80.8L403.3,80.8z
	 M403.3,90.6c-3.1-1.1-6-2.9-8.6-5.3v0.3v3.2v2.5c2.6,2.7,5.5,4.7,8.6,5.8V90.6L403.3,90.6z M403.3,100.4v6.6
	c-3.1-1.2-6-3.2-8.6-5.8v-2.5v-3.2v-0.3C397.4,97.6,400.2,99.4,403.3,100.4L403.3,100.4z M403.3,110.3c-3.1-1.1-6-2.9-8.6-5.3v0.3
	v3.2v2.5c2.6,2.7,5.5,4.7,8.6,5.8V110.3L403.3,110.3z M403.3,120.1v6.6c-3.1-1.2-6-3.2-8.6-5.8v-2.5v-3.2v-0.3
	C397.4,117.2,400.2,119.1,403.3,120.1L403.3,120.1z M403.3,19.3c0,0-2.5,0.5-4.3,1.3c-1.6,0.7-4.1,1.9-4.1,1.9
	c2.5,2.5,5.4,4.7,8.4,5.8v-5.5V19.3z M403.3,31.6v6.6c-3.1-1.2-6-3.2-8.6-5.8v-2.5v-3.2v-0.3C397.4,28.7,400.2,30.5,403.3,31.6
	L403.3,31.6z M403.3,41.4c-3.1-1.1-6-2.9-8.6-5.3v0.3v3.2v2.5c2.6,2.7,5.5,4.7,8.6,5.8V41.4L403.3,41.4z M403.3,51.2v6.6
	c-3.1-1.2-6-3.2-8.6-5.8v-2.5v-3.2v-0.3C397.4,48.4,400.2,50.2,403.3,51.2L403.3,51.2z M403.3,61.1v6.6c-3.1-1.2-6-3.2-8.6-5.8v-2.5
	v-3.2v-0.3C397.4,58.2,400.2,60,403.3,61.1L403.3,61.1z M392.6,63.4V60c-1.5,0.6-2.9,1.3-4.3,2.2v6.4c1.4-0.8,2.8-1.5,4.3-2V63.4
	L392.6,63.4z M388.3,72v6.4c1.4-0.8,2.8-1.5,4.3-2v-3.2v-3.4C391.1,70.4,389.7,71.1,388.3,72L388.3,72z M388.3,81.9v6.4
	c1.4-0.8,2.8-1.5,4.3-2v-3.2v-3.4C391.1,80.2,389.7,81,388.3,81.9L388.3,81.9z M392.6,56.7v-3.2v-3.4c-1.5,0.6-2.9,1.3-4.3,2.2v6.4
	C389.7,57.9,391.1,57.2,392.6,56.7L392.6,56.7z M392.6,46.9v-3.2v-3.4c-1.5,0.6-2.9,1.3-4.3,2.2v6.4
	C389.7,48.1,391.1,47.4,392.6,46.9L392.6,46.9z M388.3,91.7v6.4c1.4-0.8,2.8-1.5,4.3-2v-3.2v-3.4C391.1,90.1,389.7,90.8,388.3,91.7
	L388.3,91.7z M388.3,101.6v6.4c1.4-0.8,2.8-1.5,4.3-2v-3.2v-3.4C391.1,99.9,389.7,100.6,388.3,101.6L388.3,101.6z M388.3,111.4v6.4
	c1.4-0.8,2.8-1.5,4.3-2v-3.2v-3.4C391.1,109.7,389.7,110.5,388.3,111.4L388.3,111.4z M388.3,121.2c0,3.6,1.9,6.6,4.3,6.6v-5.3V119
	C391.1,119.6,389.7,120.3,388.3,121.2L388.3,121.2L388.3,121.2z M392.6,37v-3.2v-3.4c-1.5,0.6-2.9,1.3-4.3,2.2v6.4
	C389.7,38.2,391.1,37.5,392.6,37L392.6,37z M392.6,27.2V24v-1.2c-2.4,0-4.3,2.9-4.3,6.6l0-0.1C389.7,28.4,391.1,27.7,392.6,27.2
	L392.6,27.2z M396.5,130.4c1.8,0.6,7.5,0.9,7.5,0.9c-1.4-2.2-7.9-5.5-9.2-6.7c0,0-0.2,2.4,0,3.1
	C394.9,128.6,395.7,130.2,396.5,130.4z M410.7,34.5v-7c3.3,1.2,6.4,3.4,9.2,6.2v2.7v3.4v0.4C417.1,37.5,414,35.6,410.7,34.5
	L410.7,34.5z M410.7,24c3.3,1.1,6.4,3.1,9.2,5.7v-0.4v-3.4v-6.6h-9.2V24L410.7,24z M410.7,131.3h4.6c1.5-1,2.9-2.2,4.3-3.5
	c-2.7-2.7-5.6-4.7-8.8-5.8V131.3L410.7,131.3z M410.7,118.5v-7c3.3,1.2,6.4,3.4,9.2,6.2v2.7v3.4v0.4
	C417.1,121.6,414,119.6,410.7,118.5L410.7,118.5z M410.7,108c3.3,1.1,6.4,3.1,9.2,5.7v-0.4v-3.4v-2.7c-2.8-2.8-5.9-5-9.2-6.2V108
	L410.7,108z M410.7,97.5v-7c3.3,1.2,6.4,3.4,9.2,6.2v2.7v3.4v0.4C417.1,100.6,414,98.6,410.7,97.5L410.7,97.5z M410.7,87
	c3.3,1.1,6.4,3.1,9.2,5.7v-0.4v-3.4v-2.7c-2.8-2.8-5.9-5-9.2-6.2V87L410.7,87z M410.7,76.5v-7c3.3,1.2,6.4,3.4,9.2,6.2v2.7v3.4v0.4
	C417.1,79.6,414,77.6,410.7,76.5L410.7,76.5z M410.7,66c3.3,1.1,6.4,3.1,9.2,5.7v-0.4v-3.4v-2.7c-2.8-2.8-5.9-5-9.2-6.2V66L410.7,66
	z M410.7,55.5v-7c3.3,1.2,6.4,3.4,9.2,6.2v2.7v3.4v0.4C417.1,58.5,414,56.6,410.7,55.5L410.7,55.5z M422.2,53v3.7
	c1.6-0.6,3.1-1.4,4.6-2.4v-6.8c-1.5,0.9-3,1.6-4.6,2.2V53L422.2,53z M422.2,60.1v3.4v3.7c1.6-0.6,3.1-1.4,4.6-2.4v-6.8
	C425.3,58.8,423.8,59.6,422.2,60.1L422.2,60.1z M422.2,70.6V74v3.7c1.6-0.6,3.1-1.4,4.6-2.4v-6.8C425.3,69.3,423.8,70.1,422.2,70.6
	L422.2,70.6z M422.2,81.1v3.4v3.7c1.6-0.6,3.1-1.4,4.6-2.4V79C425.3,79.9,423.8,80.6,422.2,81.1L422.2,81.1z M422.2,91.6V95v3.7
	c1.6-0.6,3.1-1.4,4.6-2.4v-6.8C425.3,90.4,423.8,91.1,422.2,91.6L422.2,91.6z M426.8,43.8v-6.8c-1.5,0.9-3,1.6-4.6,2.2v3.4v3.7
	C423.8,45.5,425.3,44.8,426.8,43.8L426.8,43.8z M426.8,33.3v-6.8c-1.5,0.9-3,1.6-4.6,2.2V32v3.7C423.8,35,425.3,34.3,426.8,33.3
	L426.8,33.3z M426.3,23.1c-0.8-2.3-2.3-3.8-4.1-3.8v5.8C423.6,24.6,425,23.9,426.3,23.1L426.3,23.1z M422.2,102.1v3.4v3.7
	c1.6-0.6,3.1-1.4,4.6-2.4V100C425.3,100.9,423.8,101.6,422.2,102.1L422.2,102.1z M422.2,112.6v3.4v3.7c1.6-0.6,3.1-1.4,4.6-2.4v-6.8
	C425.3,111.4,423.8,112.1,422.2,112.6L422.2,112.6z M422.2,123.1v1.7v1.7v2.6v1.7v0.5c2.5,0,4.6-3.1,4.6-7V121
	C425.3,121.9,423.8,122.6,422.2,123.1z"/>
<ellipse class="st0" cx="52.7" cy="76" rx="12.7" ry="56"/>
<ellipse class="st0" cx="113.4" cy="76.1" rx="6.3" ry="56"/>
<ellipse class="st0" cx="130.8" cy="76.1" rx="6.3" ry="56"/>
<ellipse class="st0" cx="181.4" cy="75.8" rx="6.3" ry="56.5"/>
<ellipse class="st0" cx="397.8" cy="76.6" rx="7.4" ry="54.7"/>
<ellipse transform="matrix(0.9239 -0.3827 0.3827 0.9239 5.5336 105.1273)" class="st0" cx="267" cy="38.7" rx="15.7" ry="6.3"/>
<ellipse transform="matrix(0.9239 -0.3827 0.3827 0.9239 10.1289 132.2935)" class="st0" cx="337.5" cy="40.7" rx="18" ry="15"/>
<ellipse class="st0" cx="325.3" cy="77.8" rx="7" ry="9.2"/>
<ellipse class="st0" cx="341.4" cy="97.5" rx="13.8" ry="5.8"/>
<ellipse transform="matrix(0.7825 -0.6226 0.6226 0.7825 -2.9161 237.8217)" class="st0" cx="339" cy="123.1" rx="8.2" ry="6.1"/>
<ellipse transform="matrix(0.9239 -0.3827 0.3827 0.9239 -6.0244 107.4268)" class="st0" cx="267" cy="68.9" rx="15.7" ry="6.3"/>
<ellipse transform="matrix(0.9239 -0.3827 0.3827 0.9239 -18.4111 110.7802)" class="st0" cx="269.2" cy="101.7" rx="15.7" ry="6.3"/>
</svg>
